<svg width="96" height="96" viewBox="0 0 96 96" fill="none" xmlns="http://www.w3.org/2000/svg">
<path d="M63.6 67.8L58.3 62.6H37C33.9333 62.6 31.3333 61.5333 29.2 59.4C27.0667 57.2667 26 54.6667 26 51.6C26 49.0333 26.7917 46.75 28.375 44.75C29.9583 42.75 32 41.4667 34.5 40.9C34.6 40.6333 34.7 40.375 34.8 40.125C34.9 39.875 35 39.6 35.1 39.3L26.8 31L29.6 28.2L66.4 65L63.6 67.8ZM37 58.6H54.3L38.2 42.5C38.1333 42.8667 38.0833 43.2167 38.05 43.55C38.0167 43.8833 38 44.2333 38 44.6H37C35.0667 44.6 33.4167 45.2833 32.05 46.65C30.6833 48.0167 30 49.6667 30 51.6C30 53.5333 30.6833 55.1833 32.05 56.55C33.4167 57.9167 35.0667 58.6 37 58.6ZM67.2 60.1L64.3 57.3C64.8667 56.8333 65.2917 56.2917 65.575 55.675C65.8583 55.0583 66 54.3667 66 53.6C66 52.2 65.5167 51.0167 64.55 50.05C63.5833 49.0833 62.4 48.6 61 48.6H58V44.6C58 41.8333 57.025 39.475 55.075 37.525C53.125 35.575 50.7667 34.6 48 34.6C47.1 34.6 46.2333 34.7083 45.4 34.925C44.5667 35.1417 43.7667 35.4833 43 35.95L40.1 33.05C41.2667 32.25 42.5083 31.6417 43.825 31.225C45.1417 30.8083 46.5333 30.6 48 30.6C51.9 30.6 55.2083 31.9583 57.925 34.675C60.6417 37.3917 62 40.7 62 44.6C64.3 44.8667 66.2083 45.8583 67.725 47.575C69.2417 49.2917 70 51.3 70 53.6C70 54.9 69.75 56.1083 69.25 57.225C68.75 58.3417 68.0667 59.3 67.2 60.1Z" fill="#64748B"/>
<rect opacity="0.2" x="0.5" y="0.5" width="95" height="95" rx="11.5" stroke="#334155"/>
<rect opacity="0.3" x="8.5" y="8.5" width="79" height="79" rx="11.5" stroke="#00FFC8" stroke-dasharray="3 2"/>
</svg>
