<svg xmlns="http://www.w3.org/2000/svg" viewBox="0 0 24 24" aria-hidden="true">
  <path d="M21.35 11.1H12v2.98h5.4c-.23 1.53-1.75 4.5-5.4 4.5-3.25 0-5.9-2.7-5.9-6.03s2.65-6.03 5.9-6.03c1.85 0 3.08.79 3.79 1.46l2.58-2.5C16.74 3.92 14.57 3 12 3 6.98 3 2.9 7.08 2.9 12.1S6.98 21.2 12 21.2c6.35 0 8.88-4.45 8.88-6.74 0-.45-.05-.78-.1-1.12l-.03-.24Z" fill="#4285F4"/>
  <path d="M2.9 7.55 5.35 9.35A5.99 5.99 0 0 1 12 6.07c1.85 0 3.08.79 3.79 1.46l2.58-2.5C16.74 3.92 14.57 3 12 3 8.12 3 4.79 5.25 2.9 7.55Z" fill="#EA4335"/>
  <path d="M12 21.2c2.5 0 4.6-.82 6.13-2.23l-2.82-2.3c-.76.53-1.77.91-3.31.91-3.64 0-5.16-2.97-5.4-4.5l-2.5 1.93C5.98 18.87 8.67 21.2 12 21.2Z" fill="#34A853"/>
  <path d="M2.9 12.1c0 1.61.38 3.13 1.2 4.44l2.5-1.93a6.2 6.2 0 0 1-.31-1.93c0-.67.11-1.31.3-1.92L4.1 8.83A9.1 9.1 0 0 0 2.9 12.1Z" fill="#FBBC05"/>
</svg>
