<svg width="40" height="40" viewBox="0 0 40 40" fill="none" xmlns="http://www.w3.org/2000/svg">
<rect x="0.5" y="0.5" width="39" height="39" rx="1.5" fill="#16161E"/>
<rect x="0.5" y="0.5" width="39" height="39" rx="1.5" stroke="#1F1F2E"/>
<path d="M13.35 29.5C13.0667 29.5 12.7792 29.4125 12.4875 29.2375C12.1959 29.0625 11.9834 28.8583 11.85 28.625L9.35002 24.25C9.21669 24.0167 9.15002 23.7292 9.15002 23.3875C9.15002 23.0458 9.21669 22.7583 9.35002 22.525L15.85 11.375C15.9834 11.1417 16.1959 10.9375 16.4875 10.7625C16.7792 10.5875 17.0667 10.5 17.35 10.5H22.35C22.6334 10.5 22.9209 10.5875 23.2125 10.7625C23.5042 10.9375 23.7167 11.1417 23.85 11.375L28.4 19.175C28.0167 19.075 27.6209 19.0083 27.2125 18.975C26.8042 18.9417 26.4 18.9583 26 19.025L22.2 12.5H17.5L11.15 23.4L13.5 27.5H21.4C21.5834 27.8833 21.7959 28.2417 22.0375 28.575C22.2792 28.9083 22.5584 29.2167 22.875 29.5H13.35V29.5M15.1 25L14.375 23.725L18.95 15.75H20.75L23.275 20.15C22.9917 20.3667 22.7292 20.6042 22.4875 20.8625C22.2459 21.1208 22.0334 21.3917 21.85 21.675L19.85 18.2L17.1 23H21.2C21.0834 23.3167 20.9959 23.6417 20.9375 23.975C20.8792 24.3083 20.85 24.65 20.85 25H15.1V25M25.85 29V26H22.85V24H25.85V21H27.85V24H30.85V26H27.85V29H25.85V29" fill="#00FFC8"/>
</svg>
