<svg width="29" height="25" viewBox="0 0 29 25" fill="none" xmlns="http://www.w3.org/2000/svg">
<g filter="url(#filter0_d_1_280)">
<path d="M6.5 16.5C5.95 16.5 5.47917 16.3042 5.0875 15.9125C4.69583 15.5208 4.5 15.05 4.5 14.5V2.5C4.5 1.95 4.69583 1.47917 5.0875 1.0875C5.47917 0.695833 5.95 0.5 6.5 0.5H22.5C23.05 0.5 23.5208 0.695833 23.9125 1.0875C24.3042 1.47917 24.5 1.95 24.5 2.5V14.5C24.5 15.05 24.3042 15.5208 23.9125 15.9125C23.5208 16.3042 23.05 16.5 22.5 16.5H6.5V16.5M6.5 14.5H22.5V14.5V14.5V4.5H6.5V14.5V14.5V14.5V14.5M10 13.5L8.6 12.1L11.175 9.5L8.575 6.9L10 5.5L14 9.5L10 13.5V13.5M14.5 13.5V11.5H20.5V13.5H14.5V13.5" fill="#00FFC8"/>
<path d="M6.5 16.5C5.95 16.5 5.47917 16.3042 5.0875 15.9125C4.69583 15.5208 4.5 15.05 4.5 14.5V2.5C4.5 1.95 4.69583 1.47917 5.0875 1.0875C5.47917 0.695833 5.95 0.5 6.5 0.5H22.5C23.05 0.5 23.5208 0.695833 23.9125 1.0875C24.3042 1.47917 24.5 1.95 24.5 2.5V14.5C24.5 15.05 24.3042 15.5208 23.9125 15.9125C23.5208 16.3042 23.05 16.5 22.5 16.5H6.5V16.5M6.5 14.5H22.5V14.5V14.5V4.5H6.5V14.5V14.5V14.5V14.5M10 13.5L8.6 12.1L11.175 9.5L8.575 6.9L10 5.5L14 9.5L10 13.5V13.5M14.5 13.5V11.5H20.5V13.5H14.5V13.5" stroke="black" stroke-linejoin="bevel"/>
</g>
<defs>
<filter id="filter0_d_1_280" x="0" y="0" width="29" height="25" filterUnits="userSpaceOnUse" color-interpolation-filters="sRGB">
<feFlood flood-opacity="0" result="BackgroundImageFix"/>
<feColorMatrix in="SourceAlpha" type="matrix" values="0 0 0 0 0 0 0 0 0 0 0 0 0 0 0 0 0 0 127 0" result="hardAlpha"/>
<feOffset dy="4"/>
<feGaussianBlur stdDeviation="2"/>
<feComposite in2="hardAlpha" operator="out"/>
<feColorMatrix type="matrix" values="0 0 0 0 0 0 0 0 0 0 0 0 0 0 0 0 0 0 0.25 0"/>
<feBlend mode="normal" in2="BackgroundImageFix" result="effect1_dropShadow_1_280"/>
<feBlend mode="normal" in="SourceGraphic" in2="effect1_dropShadow_1_280" result="shape"/>
</filter>
</defs>
</svg>
